<?xml version="1.0" encoding="utf-8"?>
<!-- Generator: Adobe Illustrator 18.0.0, SVG Export Plug-In . SVG Version: 6.00 Build 0)  -->
<!DOCTYPE svg PUBLIC "-//W3C//DTD SVG 1.1//EN" "http://www.w3.org/Graphics/SVG/1.1/DTD/svg11.dtd">
<svg version="1.1" id="Layer_1" xmlns="http://www.w3.org/2000/svg" xmlns:xlink="http://www.w3.org/1999/xlink" x="0px" y="0px"
	 viewBox="0 0 64 64" enable-background="new 0 0 64 64" xml:space="preserve">
<g>
	<g>
		<path d="M62.8,57.2L48.7,43c3.7-4.9,5.7-11.2,5.2-17.9c-0.9-13.2-11.5-24-24.7-25.1C12.6-1.2-1.2,12.6,0.1,29.2
			c1,13.2,11.8,23.9,25.1,24.7c6.7,0.4,12.9-1.6,17.9-5.2l14.1,14.1c1.6,1.6,4.1,1.6,5.7,0l0,0C64.4,61.3,64.4,58.7,62.8,57.2z
			 M27,46C16.5,46,8,37.5,8,27S16.5,8,27,8s19,8.5,19,19S37.5,46,27,46z"/>
	</g>
</g>
</svg>
